# xmcd
#
# Track frame offsets:
#	182
#	10572
#	22752
#	33077
#	44870
#	54210
#	63630
#	76902
#	87675
#	99537
#	112707
#	126642
#	140960
#	159555
#	184675
#	198905
#	221997
#	237085
#	253882
#
# Disc length: 3609 seconds
#
# Revision: 6
# Processed by: cddbd v1.5.2PL0 Copyright (c) Steve Scherf et al.
# Submitted via: EZCDAudioConverter 2.1.7.1
#
DISCID=0a0e1713
DTITLE=West Indies Steel Band - All The Best Of...
DYEAR=1900
DGENRE=
TTITLE0=Carnival
TTITLE1=Melodies
TTITLE2=Bamboo Stick
TTITLE3=Mambo Mama
TTITLE4=Island Home
TTITLE5=Limbo
TTITLE6=Sounds Of The Sun
TTITLE7=Rhythm
TTITLE8=Trinidad Home
TTITLE9=Flag Woman
TTITLE10=Wings Of A Dove
TTITLE11=Endless Vibrations
TTITLE12=Yellow Bird
TTITLE13=Eine Kleine Nacht Musik In Calypso Rhythm
TTITLE14=Wedding March
TTITLE15=Amazing Grace In Reggae Rhythm
TTITLE16=Marianne/Mathilda In Medley
TTITLE17=Perdoname
TTITLE18=Jamming
EXTD=
EXTT0=
EXTT1=
EXTT2=
EXTT3=
EXTT4=
EXTT5=
EXTT6=
EXTT7=
EXTT8=
EXTT9=
EXTT10=
EXTT11=
EXTT12=
EXTT13=
EXTT14=
EXTT15=
EXTT16=
EXTT17=
EXTT18=
PLAYORDER=
